{
  "accessors": [
    {
      "bufferView": 2,
      "componentType": 5126,
      "count": 14293,
      "max": [
        0.2818443477153778,
        0.21642090380191803,
        0.15382762253284454
      ],
      "min": [
        -0.2737133800983429,
        -0.21623027324676514,
        -0.16355544328689575
      ],
      "type": "VEC3"
    },
    {
      "bufferView": 2,
      "byteOffset": 171516,
      "componentType": 5126,
      "count": 14293,
      "max": [
        0.9999514818191528,
        0.9992103576660156,
        0.9999998807907104
      ],
      "min": [
        -0.9997923970222473,
        -0.9999817609786987,
        -0.9999997615814209
      ],
      "type": "VEC3"
    },
    {
      "bufferView": 3,
      "componentType": 5126,
      "count": 14293,
      "max": [
        0.9948684573173523,
        0.9999662041664124,
        0.999983549118042,
        -1.0
      ],
      "min": [
        -0.9998380541801453,
        -0.999347984790802,
        -0.9999611973762512,
        -1.0
      ],
      "type": "VEC4"
    },
    {
      "bufferView": 1,
      "componentType": 5126,
      "count": 14293,
      "max": [
        0.9744032621383667,
        0.9993103742599487
      ],
      "min": [
        0.0006896338891237974,
        0.0006896853446960449
      ],
      "type": "VEC2"
    },
    {
      "bufferView": 1,
      "byteOffset": 114344,
      "componentType": 5126,
      "count": 14293,
      "max": [
        0.9744032621383667,
        0.9993103742599487
      ],
      "min": [
        0.0006896338891237974,
        0.0006896853446960449
      ],
      "type": "VEC2"
    },
    {
      "bufferView": 1,
      "byteOffset": 228688,
      "componentType": 5126,
      "count": 14293,
      "max": [
        0.9744032621383667,
        0.9993103742599487
      ],
      "min": [
        0.0006896338891237974,
        0.0006896853446960449
      ],
      "type": "VEC2"
    },
    {
      "bufferView": 1,
      "byteOffset": 343032,
      "componentType": 5126,
      "count": 14293,
      "max": [
        0.9744032621383667,
        0.9993103742599487
      ],
      "min": [
        0.0006896338891237974,
        0.0006896853446960449
      ],
      "type": "VEC2"
    },
    {
      "bufferView": 0,
      "componentType": 5125,
      "count": 75522,
      "type": "SCALAR"
    }
  ],
  "asset": {
    "extras": {
      "author": "whimzy (https://sketchfab.com/whimzy)",
      "license": "SKETCHFAB Standard (https://sketchfab.com/licenses)",
      "source": "https://sketchfab.com/3d-models/3f7d74308a05-8e73d9015347-19th-century-sofa-g-de1b6af7d3ac479d8812cc2c7b64b175",
      "title": "3f7d74308a05_8e73d9015347_19th_century_sofa_g"
    },
    "generator": "Sketchfab-15.68.0",
    "version": "2.0"
  },
  "bufferViews": [
    {
      "buffer": 0,
      "byteLength": 302088,
      "name": "floatBufferViews",
      "target": 34963
    },
    {
      "buffer": 0,
      "byteLength": 457376,
      "byteOffset": 302088,
      "byteStride": 8,
      "name": "floatBufferViews",
      "target": 34962
    },
    {
      "buffer": 0,
      "byteLength": 343032,
      "byteOffset": 759464,
      "byteStride": 12,
      "name": "floatBufferViews",
      "target": 34962
    },
    {
      "buffer": 0,
      "byteLength": 228688,
      "byteOffset": 1102496,
      "byteStride": 16,
      "name": "floatBufferViews",
      "target": 34962
    }
  ],
  "buffers": [
    {
      "byteLength": 1331184,
      "uri": "scene.bin"
    }
  ],
  "images": [
    {
      "uri": "textures/base_material_baseColor.jpeg"
    },
    {
      "uri": "textures/base_material_metallicRoughness.png"
    },
    {
      "uri": "textures/base_material_normal.jpeg"
    }
  ],
  "materials": [
    {
      "doubleSided": true,
      "name": "base_material",
      "normalTexture": {
        "index": 2
      },
      "pbrMetallicRoughness": {
        "baseColorTexture": {
          "index": 0
        },
        "metallicRoughnessTexture": {
          "index": 1
        }
      }
    }
  ],
  "meshes": [
    {
      "name": "Object_0",
      "primitives": [
        {
          "attributes": {
            "NORMAL": 1,
            "POSITION": 0,
            "TANGENT": 2,
            "TEXCOORD_0": 3,
            "TEXCOORD_1": 4,
            "TEXCOORD_2": 5,
            "TEXCOORD_3": 6
          },
          "indices": 7,
          "material": 0,
          "mode": 4
        }
      ]
    }
  ],
  "nodes": [
    {
      "children": [
        1
      ],
      "matrix": [
        1.0,
        0.0,
        0.0,
        0.0,
        0.0,
        2.220446049250313e-16,
        -1.0,
        0.0,
        0.0,
        1.0,
        2.220446049250313e-16,
        0.0,
        0.0,
        0.0,
        0.0,
        1.0
      ],
      "name": "Sketchfab_model"
    },
    {
      "children": [
        2
      ],
      "name": "root"
    },
    {
      "children": [
        3
      ],
      "matrix": [
        1.0,
        0.0,
        0.0,
        0.0,
        0.0,
        2.220446049250313e-16,
        1.0,
        0.0,
        0.0,
        -1.0,
        2.220446049250313e-16,
        0.0,
        0.0,
        0.0,
        0.0,
        1.0
      ],
      "name": "GLTF_SceneRootNode"
    },
    {
      "children": [
        4
      ],
      "matrix": [
        1.7985799312591553,
        0.0,
        0.0,
        0.0,
        0.0,
        0.0,
        1.7985799312591553,
        0.0,
        0.0,
        -1.7985799312591553,
        0.0,
        0.0,
        0.0,
        0.0,
        0.0,
        1.0
      ],
      "name": "mesh_0"
    },
    {
      "mesh": 0,
      "name": "Object_4"
    }
  ],
  "samplers": [
    {
      "magFilter": 9729,
      "minFilter": 9987,
      "wrapS": 10497,
      "wrapT": 10497
    }
  ],
  "scene": 0,
  "scenes": [
    {
      "name": "Sketchfab_Scene",
      "nodes": [
        0
      ]
    }
  ],
  "textures": [
    {
      "sampler": 0,
      "source": 0
    },
    {
      "sampler": 0,
      "source": 1
    },
    {
      "sampler": 0,
      "source": 2
    }
  ]
}
